# xmcd CD database file
#
# Track frame offsets:
#	150
#	6785
#	15972
#	24925
#	34970
#	41710
#	49170
#	57172
#	70192
#	78265
#	87050
#	98520
#	114272
#	122197
#	133707
#	141540
#	149637
#	158027
#	165557
#	175210
#	186102
#	194042
#	200195
#	211032
#	224010
#	235782
#	245295
#	255322
#	266555
#	280082
#	291712
#	300755
#	311650
#
# Disc length: 4317 seconds
#
# Revision: 2
# Processed by: cddbd v1.4b41PL1 Copyright (c) Steve Scherf et al.
# Submitted via: Feurio! 1.52 - http://www.feurio.com
#
DISCID=da10db21
DTITLE=Mixed By: Hard-E and Smooth B. - Reggae Party Mega-Mix
DYEAR=1900
DGENRE=
TTITLE0=NewYorKool Intro
TTITLE1=Freaks - Lil Vicious and Doug E. Fresh
TTITLE2=No Diggity (Remix) - Blackstreet
TTITLE3=Murder She Wrote - Chaka Demus and Pliers
TTITLE4=Bam Bam - Pliers
TTITLE5=Them A Bleach - Nardo Ranks
TTITLE6=A Who Seh Me Dun - Cutty Ranks
TTITLE7=Rich Girl - Louchie Lou and Michie One
TTITLE8=Limb By Limb - Cutty Ranks
TTITLE9=Hot This Year - Dirtsman
TTITLE10=Pose Off - Red Fox and Screechy Dan
TTITLE11=Twice My Age - Shabba Ranks and Kristal
TTITLE12=Real Love - Makeda
TTITLE13=I Like It (Remix) - El Debarge
TTITLE14=Big Up - Shaggy and Rayvon
TTITLE15=Skin Out - Screechy Dan
TTITLE16=Big Bills - Bajja Jedd and Screechy Dan
TTITLE17=Dem Bow - Shabba Ranks
TTITLE18=Donna - Singing Sweet
TTITLE19=Ghetto Red Hot - Super Cat
TTITLE20=Big Things A Gwan - Daddy Screw and Donovan Steele
TTITLE21=Number 2 - Terror Fabulous
TTITLE22=Things A Gwan - Spragga Benz
TTITLE23=Action - Terror Fabulous and Nadine Sutherland
TTITLE24=Wicked Dickie - Nadine Sutherland and Buju Banton
TTITLE25=Burrup - Nardo Ranks
TTITLE26=Teves Buena - El General
TTITLE27=Pu Tun Tun - El General
TTITLE28=Tour - Capleton
TTITLE29=One Blood - Junior Reid
TTITLE30=Sorry (Baby Can I Hold...) - Foxy Brown
TTITLE31=Cassandra - Frankie Paul
TTITLE32=Saddest Day - Wayne Wonder
EXTD=
EXTT0=
EXTT1=
EXTT2=
EXTT3=
EXTT4=
EXTT5=
EXTT6=
EXTT7=
EXTT8=
EXTT9=
EXTT10=
EXTT11=
EXTT12=
EXTT13=
EXTT14=
EXTT15=
EXTT16=
EXTT17=
EXTT18=
EXTT19=
EXTT20=
EXTT21=
EXTT22=
EXTT23=
EXTT24=
EXTT25=
EXTT26=
EXTT27=
EXTT28=
EXTT29=
EXTT30=
EXTT31=
EXTT32=
PLAYORDER=
